<svg width="121" height="51" viewBox="0 0 121 51" fill="none" xmlns="http://www.w3.org/2000/svg">
<path d="M27.0938 16.9922H19.1133V39H14.7012V16.9922H6.79102V13.4062H27.0938V16.9922ZM25.5996 29.3145C25.5996 27.4512 25.9688 25.7754 26.707 24.2871C27.4453 22.7871 28.4824 21.6387 29.8184 20.8418C31.1543 20.0332 32.6895 19.6289 34.4238 19.6289C36.9902 19.6289 39.0703 20.4551 40.6641 22.1074C42.2695 23.7598 43.1367 25.9512 43.2656 28.6816L43.2832 29.6836C43.2832 31.5586 42.9199 33.2344 42.1934 34.7109C41.4785 36.1875 40.4473 37.3301 39.0996 38.1387C37.7637 38.9473 36.2168 39.3516 34.459 39.3516C31.7754 39.3516 29.625 38.4609 28.0078 36.6797C26.4023 34.8867 25.5996 32.502 25.5996 29.5254V29.3145ZM29.8711 29.6836C29.8711 31.6406 30.2754 33.1758 31.084 34.2891C31.8926 35.3906 33.0176 35.9414 34.459 35.9414C35.9004 35.9414 37.0195 35.3789 37.8164 34.2539C38.625 33.1289 39.0293 31.4824 39.0293 29.3145C39.0293 27.3926 38.6133 25.8691 37.7812 24.7441C36.9609 23.6191 35.8418 23.0566 34.4238 23.0566C33.0293 23.0566 31.9219 23.6133 31.1016 24.7266C30.2812 25.8281 29.8711 27.4805 29.8711 29.6836ZM47.3086 39V13.4062H54.8672C57.1289 13.4062 59.1328 13.9102 60.8789 14.918C62.6367 15.9258 63.9961 17.3555 64.957 19.207C65.918 21.0586 66.3984 23.1797 66.3984 25.5703V26.8535C66.3984 29.2793 65.9121 31.4121 64.9395 33.252C63.9785 35.0918 62.6016 36.5098 60.8086 37.5059C59.0273 38.502 56.9824 39 54.6738 39H47.3086ZM51.7559 16.9922V35.4492H54.6562C56.9883 35.4492 58.7754 34.7227 60.0176 33.2695C61.2715 31.8047 61.9102 29.707 61.9336 26.9766V25.5527C61.9336 22.7754 61.3301 20.6543 60.123 19.1895C58.916 17.7246 57.1641 16.9922 54.8672 16.9922H51.7559ZM69.6152 29.3145C69.6152 27.4512 69.9844 25.7754 70.7227 24.2871C71.4609 22.7871 72.498 21.6387 73.834 20.8418C75.1699 20.0332 76.7051 19.6289 78.4395 19.6289C81.0059 19.6289 83.0859 20.4551 84.6797 22.1074C86.2852 23.7598 87.1523 25.9512 87.2812 28.6816L87.2988 29.6836C87.2988 31.5586 86.9355 33.2344 86.209 34.7109C85.4941 36.1875 84.4629 37.3301 83.1152 38.1387C81.7793 38.9473 80.2324 39.3516 78.4746 39.3516C75.791 39.3516 73.6406 38.4609 72.0234 36.6797C70.418 34.8867 69.6152 32.502 69.6152 29.5254V29.3145ZM73.8867 29.6836C73.8867 31.6406 74.291 33.1758 75.0996 34.2891C75.9082 35.3906 77.0332 35.9414 78.4746 35.9414C79.916 35.9414 81.0352 35.3789 81.832 34.2539C82.6406 33.1289 83.0449 31.4824 83.0449 29.3145C83.0449 27.3926 82.6289 25.8691 81.7969 24.7441C80.9766 23.6191 79.8574 23.0566 78.4395 23.0566C77.0449 23.0566 75.9375 23.6133 75.1172 24.7266C74.2969 25.8281 73.8867 27.4805 73.8867 29.6836ZM104.701 32.4082C104.701 31.2832 104.303 30.416 103.506 29.8066C102.721 29.1973 101.297 28.582 99.2344 27.9609C97.1719 27.3398 95.5312 26.6484 94.3125 25.8867C91.9805 24.4219 90.8145 22.5117 90.8145 20.1562C90.8145 18.0938 91.6523 16.3945 93.3281 15.0586C95.0156 13.7227 97.2012 13.0547 99.8848 13.0547C101.666 13.0547 103.254 13.3828 104.648 14.0391C106.043 14.6953 107.139 15.6328 107.936 16.8516C108.732 18.0586 109.131 19.4004 109.131 20.877H104.701C104.701 19.541 104.279 18.498 103.436 17.748C102.604 16.9863 101.408 16.6055 99.8496 16.6055C98.3965 16.6055 97.2656 16.916 96.457 17.5371C95.6602 18.1582 95.2617 19.0254 95.2617 20.1387C95.2617 21.0762 95.6953 21.8613 96.5625 22.4941C97.4297 23.1152 98.8594 23.7246 100.852 24.3223C102.844 24.9082 104.443 25.582 105.65 26.3438C106.857 27.0938 107.742 27.9609 108.305 28.9453C108.867 29.918 109.148 31.0605 109.148 32.373C109.148 34.5059 108.328 36.2051 106.688 37.4707C105.059 38.7246 102.844 39.3516 100.043 39.3516C98.1914 39.3516 96.4863 39.0117 94.9277 38.332C93.3809 37.6406 92.1738 36.6914 91.3066 35.4844C90.4512 34.2773 90.0234 32.8711 90.0234 31.2656H94.4707C94.4707 32.7188 94.9512 33.8438 95.9121 34.6406C96.873 35.4375 98.25 35.8359 100.043 35.8359C101.59 35.8359 102.75 35.5254 103.523 34.9043C104.309 34.2715 104.701 33.4395 104.701 32.4082Z" fill="#FB2DFF"/>
</svg>
